<svg xmlns="http://www.w3.org/2000/svg" viewBox="0 0 200 200" width="200" height="200">
  <!-- Background Circle -->
  <circle cx="100" cy="100" r="95" fill="#1C1C1C" stroke="#8B0000" stroke-width="2"/>
  
  <!-- Gradient Definition -->
  <defs>
    <linearGradient id="bazariGradient" x1="0%" y1="0%" x2="100%" y2="100%">
      <stop offset="0%" style="stop-color:#8B0000;stop-opacity:1" />
      <stop offset="100%" style="stop-color:#FFB300;stop-opacity:1" />
    </linearGradient>
  </defs>
  
  <!-- Letter B - Stylized -->
  <g transform="translate(100,100)">
    <!-- Main B shape -->
    <path d="
      M -35 -50
      L -35 50
      L 10 50
      Q 35 50 35 30
      Q 35 15 20 10
      Q 35 5 35 -10
      Q 35 -30 10 -30
      L -35 -30
      M -15 -10
      L 5 -10
      Q 15 -10 15 -20
      Q 15 -30 5 -30
      L -15 -30
      Z
      M -15 10
      L 5 10
      Q 15 10 15 20
      Q 15 30 5 30
      L -15 30
      Z
    " 
    fill="url(#bazariGradient)"
    stroke="#F5F1E0"
    stroke-width="1"
    />
    
    <!-- Decorative elements -->
    <circle cx="-40" cy="0" r="3" fill="#FFB300" opacity="0.8"/>
    <circle cx="40" cy="0" r="3" fill="#FFB300" opacity="0.8"/>
    <circle cx="0" cy="-55" r="3" fill="#8B0000" opacity="0.8"/>
    <circle cx="0" cy="55" r="3" fill="#8B0000" opacity="0.8"/>
  </g>
  
  <!-- Outer ring decoration -->
  <circle cx="100" cy="100" r="90" fill="none" stroke="url(#bazariGradient)" stroke-width="1" opacity="0.3"/>
</svg>